<?xml version="1.0" encoding="utf-8"?>
<!-- Generator: Adobe Illustrator 22.1.0, SVG Export Plug-In . SVG Version: 6.00 Build 0)  -->
<svg version="1.1" id="Layer_1" xmlns="http://www.w3.org/2000/svg" xmlns:xlink="http://www.w3.org/1999/xlink" x="0px" y="0px"
	 viewBox="0 0 1280 1024" style="enable-background:new 0 0 1280 1024;" xml:space="preserve">
<style type="text/css">
	.st0{fill:#00FF00;}
</style>
<g>
	<path class="st0" d="M87.9,130.7c2.6-0.2,5.2-0.4,7.6-0.7l0.6,6.9c-13.5,2.4-28.5,2.7-39.8,2.7l-1-7.8c2.3,0,4.8,0,7.4,0v-29.7H57
		v-7.6h36.6v7.6h-5.7V130.7z M71.9,131.5c2.2-0.1,4.5-0.1,6.8-0.2v-29.2h-6.8V131.5z M117.7,121.2H108v33.5h-9.5V88.4h9.5v25h9.6
		V121.2z"/>
	<path class="st0" d="M135.4,132c9.9-0.1,17.9-0.4,26.9-1.8l0.9,7.6c-10.4,1.6-19.7,1.9-31.5,1.9h-5.8V93.8h33.6v7.7h-24.1v10.8
		h21.3v7.4h-21.3V132z M177.6,88.3v66.4H168V88.3H177.6z"/>
	<path class="st0" d="M90.8,212.1v5.7h18.1v22.5H63.1v-22.5h18.2v-5.7H56.1v-7.6H116v7.6H90.8z M62.1,188.5c0-8,9.4-12.7,24-12.7
		s24.1,4.8,24.1,12.7c0,7.9-9.4,12.7-24.1,12.7S62.1,196.4,62.1,188.5z M71.9,188.5c0,3.7,5.2,5.5,14.2,5.5c9.1,0,14.3-1.9,14.3-5.5
		c0-3.7-5.2-5.5-14.3-5.5C77.1,182.9,71.9,184.7,71.9,188.5z M99.5,225.2H72.4v7.6h27.1V225.2z"/>
	<path class="st0" d="M158.8,212.5c-7.3-2.3-12.4-7.1-15.4-13c-3,6.5-8.3,11.7-16,14.2l-4.8-7.4c10.8-3.5,15.7-11.9,15.8-20.1h-13.3
		v-7.5h36.1v7.5h-13.1c0.1,7.8,5,15.6,15.6,19L158.8,212.5z M132.3,217.6h45.1v23.5h-9.6v-15.9h-35.6V217.6z M177.4,174.7v40h-9.6
		v-40H177.4z"/>
	<path class="st0" d="M225.3,203c0,14.6-7.4,23.8-17.4,23.8s-17.4-9.1-17.4-23.8c0-14.5,7.4-23.6,17.4-23.6S225.3,188.4,225.3,203z
		 M199.6,203c0,9.9,3.4,15.1,8.3,15.1s8.3-5.3,8.3-15.1c0-9.8-3.4-15-8.3-15S199.6,193.2,199.6,203z M243.5,174.7v66.5H234v-66.5
		H243.5z"/>
	<path class="st0" d="M314.9,207v7.6h-60.1V207H314.9z M271.2,232h37.4v7.6h-47v-19.8h9.6V232z M308.2,200.2h-46v-23.1h9.5v15.6
		h36.5V200.2z"/>
	<path class="st0" d="M353.3,218.4c9.4-0.1,17-0.4,25.6-1.7l0.9,7.6c-10.1,1.5-19,1.8-30.4,1.8h-5.6v-45.9H375v7.7h-21.7v10.8h20.7
		v7.4h-20.7V218.4z M402.8,207.7h-9.6v33.4h-9.5v-66.4h9.5v25.1h9.6V207.7z"/>
	<path class="st0" d="M444.2,203c0,14.6-7.4,23.8-17.4,23.8s-17.4-9.1-17.4-23.8c0-14.5,7.4-23.6,17.4-23.6S444.2,188.4,444.2,203z
		 M418.5,203c0,9.9,3.4,15.1,8.3,15.1s8.3-5.3,8.3-15.1c0-9.8-3.4-15-8.3-15S418.5,193.2,418.5,203z M462.4,174.7v66.5h-9.5v-66.5
		H462.4z"/>
	<path class="st0" d="M533.7,225.9v7.6h-60.1v-7.6h25.1v-11.8h-20.1v-7.6h8.6v-18.8h-9v-7.6h50.4v7.6h-9v18.8h8.8v7.6h-20.2v11.8
		H533.7z M496.8,206.6h13.5v-18.8h-13.5V206.6z"/>
	<path class="st0" d="M599.9,224.6v7.8h-60v-7.8H599.9z M583.1,188.4h-36.9v-7.6h46.4v7.8c0,9.3,0,18.4-2.4,32l-9.4-0.9
		c2.4-12.7,2.4-22.1,2.4-31.1V188.4z"/>
	<path class="st0" d="M618.3,218c9.5-0.1,17.4-0.6,26-2.1l0.9,7.7c-9.9,1.8-19.1,2.2-30.6,2.2h-5.6v-27.4h21v-10.6h-21.1v-7.6h30.5
		V206h-21V218z M667.7,207.6h-9.5v33.6h-9.5v-66.5h9.5v25.1h9.5V207.6z"/>
	<path class="st0" d="M705.5,217.1c2.8-0.1,5.5-0.4,8.3-0.8l0.6,6.8c-14,2.4-29.2,2.7-41.1,2.7l-1-7.8c2.4,0,4.9,0,7.5,0v-29.7H674
		v-7.6h37.2v7.6h-5.7V217.1z M689,217.9c2.4,0,4.9-0.1,7.4-0.2v-29.2H689V217.9z M727.6,174.8v66.3h-9.6v-66.3H727.6z"/>
	<path class="st0" d="M99.1,299.7c-5.8,1.1-11.7,1.7-17.4,2.1v23.7h-9.5v-23.2c-5.4,0.2-10.6,0.2-15.2,0.2l-1.1-7.7
		c12.3,0,28.5-0.1,42.6-2L99.1,299.7z M60.5,277.5c0-8,7.1-13.6,16.8-13.6c9.7,0,16.8,5.6,16.8,13.6c0,8.1-7.1,13.6-16.8,13.6
		C67.5,291.1,60.5,285.5,60.5,277.5z M69.3,277.5c0,4.1,3.3,6.4,8,6.4c4.7,0,7.8-2.3,7.8-6.4c0-4-3.2-6.4-7.8-6.4
		C72.7,271.1,69.3,273.4,69.3,277.5z M112.3,261.1v66.2h-9.5v-14.5H89.4v-7.2h13.3v-44.6H112.3z"/>
	<path class="st0" d="M182.3,311.8v7.8h-59.9v-7.8H182.3z M166.8,285.2c0.1-3.7,0.1-7.1,0.1-10.5v-0.1h-37.8V267h47.2v7.7
		c0,9.6,0,18.8-3.1,33.2l-9.4-0.9c1.3-5.4,2-10.2,2.4-14.7l-37.9,1.9l-1.2-7.7L166.8,285.2z"/>
	<path class="st0" d="M248.5,291.7v7.6h-59.9v-7.6H204V285h9.4v6.8h10.2V285h9.5v6.8H248.5z M242.1,286.1
		c-11.3-1.4-19.5-5.5-23.7-11.6c-4.2,6-12.3,10.2-23.6,11.6l-3.2-7.3c15-1.5,22-8.2,22-14.9V262h9.7v1.9c0,7,6.9,13.4,22,14.9
		L242.1,286.1z M231.9,302.2h9.5v24.5h-45.8v-24.5h9.4v4.8h26.9V302.2z M231.9,314.2H205v5h26.9V314.2z"/>
</g>
</svg>
